<svg width="144" height="144" xmlns="http://www.w3.org/2000/svg">
    <defs>
      <linearGradient id="boxGrad" x1="0%" y1="0%" x2="100%" y2="100%">
        <stop offset="0%" style="stop-color:#ff9500;stop-opacity:1" />
        <stop offset="100%" style="stop-color:#ff7b00;stop-opacity:1" />
      </linearGradient>
      <linearGradient id="topGrad" x1="0%" y1="0%" x2="100%" y2="100%">
        <stop offset="0%" style="stop-color:#ffb84d;stop-opacity:1" />
        <stop offset="100%" style="stop-color:#ff9500;stop-opacity:1" />
      </linearGradient>
    </defs>
    
    <!-- Background -->
    <rect width="144" height="144" fill="#000000" rx="0"/>
    
    <!-- Main Box -->
    <g transform="translate(21.599999999999998, 17.28)">
      <!-- Box base -->
      <path d="M 0 33.120000000000005 L 21.599999999999998 17.28 L 99.35999999999999 17.28 L 76.32000000000001 33.120000000000005 Z" fill="url(#topGrad)"/>
      <path d="M 0 33.120000000000005 L 0 79.2 L 21.599999999999998 95.04 L 21.599999999999998 50.4 Z" fill="#e6750a"/>
      <path d="M 21.599999999999998 50.4 L 21.599999999999998 95.04 L 99.35999999999999 95.04 L 99.35999999999999 50.4 Z" fill="url(#boxGrad)"/>
      <path d="M 76.32000000000001 33.120000000000005 L 99.35999999999999 17.28 L 99.35999999999999 50.4 L 76.32000000000001 67.67999999999999 Z" fill="#cc6600"/>
      <path d="M 0 33.120000000000005 L 76.32000000000001 33.120000000000005 L 76.32000000000001 67.67999999999999 L 0 79.2 Z" fill="#ff8c1a"/>
    </g>
    
    <!-- Check mark circle -->
    <g transform="translate(90, 90)">
      <circle cx="18" cy="18" r="18" fill="#00cc44" stroke="#000000" stroke-width="2.16"/>
      <path d="M 9 18 L 14.4 23.04 L 27 11.232" stroke="#000000" stroke-width="3.312" stroke-linecap="round" stroke-linejoin="round" fill="none"/>
    </g>
  </svg>