<svg width="192" height="192" xmlns="http://www.w3.org/2000/svg">
    <defs>
      <linearGradient id="boxGrad" x1="0%" y1="0%" x2="100%" y2="100%">
        <stop offset="0%" style="stop-color:#ff9500;stop-opacity:1" />
        <stop offset="100%" style="stop-color:#ff7b00;stop-opacity:1" />
      </linearGradient>
      <linearGradient id="topGrad" x1="0%" y1="0%" x2="100%" y2="100%">
        <stop offset="0%" style="stop-color:#ffb84d;stop-opacity:1" />
        <stop offset="100%" style="stop-color:#ff9500;stop-opacity:1" />
      </linearGradient>
    </defs>
    
    <!-- Background -->
    <rect width="192" height="192" fill="#000000" rx="0"/>
    
    <!-- Main Box -->
    <g transform="translate(28.799999999999997, 23.04)">
      <!-- Box base -->
      <path d="M 0 44.160000000000004 L 28.799999999999997 23.04 L 132.48 23.04 L 101.76 44.160000000000004 Z" fill="url(#topGrad)"/>
      <path d="M 0 44.160000000000004 L 0 105.60000000000001 L 28.799999999999997 126.72 L 28.799999999999997 67.19999999999999 Z" fill="#e6750a"/>
      <path d="M 28.799999999999997 67.19999999999999 L 28.799999999999997 126.72 L 132.48 126.72 L 132.48 67.19999999999999 Z" fill="url(#boxGrad)"/>
      <path d="M 101.76 44.160000000000004 L 132.48 23.04 L 132.48 67.19999999999999 L 101.76 90.24 Z" fill="#cc6600"/>
      <path d="M 0 44.160000000000004 L 101.76 44.160000000000004 L 101.76 90.24 L 0 105.60000000000001 Z" fill="#ff8c1a"/>
    </g>
    
    <!-- Check mark circle -->
    <g transform="translate(120, 120)">
      <circle cx="24" cy="24" r="24" fill="#00cc44" stroke="#000000" stroke-width="2.88"/>
      <path d="M 12 24 L 19.200000000000003 30.72 L 36 14.975999999999999" stroke="#000000" stroke-width="4.416" stroke-linecap="round" stroke-linejoin="round" fill="none"/>
    </g>
  </svg>