<svg width="72" height="72" xmlns="http://www.w3.org/2000/svg">
    <defs>
      <linearGradient id="boxGrad" x1="0%" y1="0%" x2="100%" y2="100%">
        <stop offset="0%" style="stop-color:#ff9500;stop-opacity:1" />
        <stop offset="100%" style="stop-color:#ff7b00;stop-opacity:1" />
      </linearGradient>
      <linearGradient id="topGrad" x1="0%" y1="0%" x2="100%" y2="100%">
        <stop offset="0%" style="stop-color:#ffb84d;stop-opacity:1" />
        <stop offset="100%" style="stop-color:#ff9500;stop-opacity:1" />
      </linearGradient>
    </defs>
    
    <!-- Background -->
    <rect width="72" height="72" fill="#000000" rx="0"/>
    
    <!-- Main Box -->
    <g transform="translate(10.799999999999999, 8.64)">
      <!-- Box base -->
      <path d="M 0 16.560000000000002 L 10.799999999999999 8.64 L 49.67999999999999 8.64 L 38.160000000000004 16.560000000000002 Z" fill="url(#topGrad)"/>
      <path d="M 0 16.560000000000002 L 0 39.6 L 10.799999999999999 47.52 L 10.799999999999999 25.2 Z" fill="#e6750a"/>
      <path d="M 10.799999999999999 25.2 L 10.799999999999999 47.52 L 49.67999999999999 47.52 L 49.67999999999999 25.2 Z" fill="url(#boxGrad)"/>
      <path d="M 38.160000000000004 16.560000000000002 L 49.67999999999999 8.64 L 49.67999999999999 25.2 L 38.160000000000004 33.839999999999996 Z" fill="#cc6600"/>
      <path d="M 0 16.560000000000002 L 38.160000000000004 16.560000000000002 L 38.160000000000004 33.839999999999996 L 0 39.6 Z" fill="#ff8c1a"/>
    </g>
    
    <!-- Check mark circle -->
    <g transform="translate(45, 45)">
      <circle cx="9" cy="9" r="9" fill="#00cc44" stroke="#000000" stroke-width="1.08"/>
      <path d="M 4.5 9 L 7.2 11.52 L 13.5 5.616" stroke="#000000" stroke-width="2" stroke-linecap="round" stroke-linejoin="round" fill="none"/>
    </g>
  </svg>