<svg width="128" height="128" xmlns="http://www.w3.org/2000/svg">
    <defs>
      <linearGradient id="boxGrad" x1="0%" y1="0%" x2="100%" y2="100%">
        <stop offset="0%" style="stop-color:#ff9500;stop-opacity:1" />
        <stop offset="100%" style="stop-color:#ff7b00;stop-opacity:1" />
      </linearGradient>
      <linearGradient id="topGrad" x1="0%" y1="0%" x2="100%" y2="100%">
        <stop offset="0%" style="stop-color:#ffb84d;stop-opacity:1" />
        <stop offset="100%" style="stop-color:#ff9500;stop-opacity:1" />
      </linearGradient>
    </defs>
    
    <!-- Background -->
    <rect width="128" height="128" fill="#000000" rx="0"/>
    
    <!-- Main Box -->
    <g transform="translate(19.2, 15.36)">
      <!-- Box base -->
      <path d="M 0 29.44 L 19.2 15.36 L 88.32 15.36 L 67.84 29.44 Z" fill="url(#topGrad)"/>
      <path d="M 0 29.44 L 0 70.4 L 19.2 84.48 L 19.2 44.8 Z" fill="#e6750a"/>
      <path d="M 19.2 44.8 L 19.2 84.48 L 88.32 84.48 L 88.32 44.8 Z" fill="url(#boxGrad)"/>
      <path d="M 67.84 29.44 L 88.32 15.36 L 88.32 44.8 L 67.84 60.16 Z" fill="#cc6600"/>
      <path d="M 0 29.44 L 67.84 29.44 L 67.84 60.16 L 0 70.4 Z" fill="#ff8c1a"/>
    </g>
    
    <!-- Check mark circle -->
    <g transform="translate(80, 80)">
      <circle cx="16" cy="16" r="16" fill="#00cc44" stroke="#000000" stroke-width="1.92"/>
      <path d="M 8 16 L 12.8 20.48 L 24 9.984" stroke="#000000" stroke-width="2.944" stroke-linecap="round" stroke-linejoin="round" fill="none"/>
    </g>
  </svg>