<svg width="384" height="384" xmlns="http://www.w3.org/2000/svg">
    <defs>
      <linearGradient id="boxGrad" x1="0%" y1="0%" x2="100%" y2="100%">
        <stop offset="0%" style="stop-color:#ff9500;stop-opacity:1" />
        <stop offset="100%" style="stop-color:#ff7b00;stop-opacity:1" />
      </linearGradient>
      <linearGradient id="topGrad" x1="0%" y1="0%" x2="100%" y2="100%">
        <stop offset="0%" style="stop-color:#ffb84d;stop-opacity:1" />
        <stop offset="100%" style="stop-color:#ff9500;stop-opacity:1" />
      </linearGradient>
    </defs>
    
    <!-- Background -->
    <rect width="384" height="384" fill="#000000" rx="0"/>
    
    <!-- Main Box -->
    <g transform="translate(57.599999999999994, 46.08)">
      <!-- Box base -->
      <path d="M 0 88.32000000000001 L 57.599999999999994 46.08 L 264.96 46.08 L 203.52 88.32000000000001 Z" fill="url(#topGrad)"/>
      <path d="M 0 88.32000000000001 L 0 211.20000000000002 L 57.599999999999994 253.44 L 57.599999999999994 134.39999999999998 Z" fill="#e6750a"/>
      <path d="M 57.599999999999994 134.39999999999998 L 57.599999999999994 253.44 L 264.96 253.44 L 264.96 134.39999999999998 Z" fill="url(#boxGrad)"/>
      <path d="M 203.52 88.32000000000001 L 264.96 46.08 L 264.96 134.39999999999998 L 203.52 180.48 Z" fill="#cc6600"/>
      <path d="M 0 88.32000000000001 L 203.52 88.32000000000001 L 203.52 180.48 L 0 211.20000000000002 Z" fill="#ff8c1a"/>
    </g>
    
    <!-- Check mark circle -->
    <g transform="translate(240, 240)">
      <circle cx="48" cy="48" r="48" fill="#00cc44" stroke="#000000" stroke-width="5.76"/>
      <path d="M 24 48 L 38.400000000000006 61.44 L 72 29.951999999999998" stroke="#000000" stroke-width="8.832" stroke-linecap="round" stroke-linejoin="round" fill="none"/>
    </g>
  </svg>