<svg width="152" height="152" xmlns="http://www.w3.org/2000/svg">
    <defs>
      <linearGradient id="boxGrad" x1="0%" y1="0%" x2="100%" y2="100%">
        <stop offset="0%" style="stop-color:#ff9500;stop-opacity:1" />
        <stop offset="100%" style="stop-color:#ff7b00;stop-opacity:1" />
      </linearGradient>
      <linearGradient id="topGrad" x1="0%" y1="0%" x2="100%" y2="100%">
        <stop offset="0%" style="stop-color:#ffb84d;stop-opacity:1" />
        <stop offset="100%" style="stop-color:#ff9500;stop-opacity:1" />
      </linearGradient>
    </defs>
    
    <!-- Background -->
    <rect width="152" height="152" fill="#000000" rx="0"/>
    
    <!-- Main Box -->
    <g transform="translate(22.8, 18.24)">
      <!-- Box base -->
      <path d="M 0 34.96 L 22.8 18.24 L 104.88 18.24 L 80.56 34.96 Z" fill="url(#topGrad)"/>
      <path d="M 0 34.96 L 0 83.60000000000001 L 22.8 100.32000000000001 L 22.8 53.199999999999996 Z" fill="#e6750a"/>
      <path d="M 22.8 53.199999999999996 L 22.8 100.32000000000001 L 104.88 100.32000000000001 L 104.88 53.199999999999996 Z" fill="url(#boxGrad)"/>
      <path d="M 80.56 34.96 L 104.88 18.24 L 104.88 53.199999999999996 L 80.56 71.44 Z" fill="#cc6600"/>
      <path d="M 0 34.96 L 80.56 34.96 L 80.56 71.44 L 0 83.60000000000001 Z" fill="#ff8c1a"/>
    </g>
    
    <!-- Check mark circle -->
    <g transform="translate(95, 95)">
      <circle cx="19" cy="19" r="19" fill="#00cc44" stroke="#000000" stroke-width="2.28"/>
      <path d="M 9.5 19 L 15.200000000000001 24.32 L 28.5 11.856" stroke="#000000" stroke-width="3.496" stroke-linecap="round" stroke-linejoin="round" fill="none"/>
    </g>
  </svg>