<svg width="512" height="512" xmlns="http://www.w3.org/2000/svg">
  <defs>
    <linearGradient id="boxGradient" x1="0%" y1="0%" x2="100%" y2="100%">
      <stop offset="0%" style="stop-color:#ff9500;stop-opacity:1" />
      <stop offset="100%" style="stop-color:#ff7b00;stop-opacity:1" />
    </linearGradient>
    <linearGradient id="topGradient" x1="0%" y1="0%" x2="100%" y2="100%">
      <stop offset="0%" style="stop-color:#ffb84d;stop-opacity:1" />
      <stop offset="100%" style="stop-color:#ff9500;stop-opacity:1" />
    </linearGradient>
    <filter id="shadow" x="-20%" y="-20%" width="140%" height="140%">
      <feDropShadow dx="0" dy="8" stdDeviation="12" flood-color="#000000" flood-opacity="0.3"/>
    </filter>
  </defs>
  
  <!-- Background -->
  <rect width="512" height="512" fill="#000000" rx="0"/>
  
  <!-- Main Box -->
  <g transform="translate(80, 60)" filter="url(#shadow)">
    <!-- Box base -->
    <path d="M 0 120 L 80 60 L 352 60 L 272 120 Z" fill="url(#topGradient)"/>
    <path d="M 0 120 L 0 280 L 80 340 L 80 180 Z" fill="#e6750a"/>
    <path d="M 80 180 L 80 340 L 352 340 L 352 180 Z" fill="url(#boxGradient)"/>
    <path d="M 272 120 L 352 60 L 352 180 L 272 240 Z" fill="#cc6600"/>
    <path d="M 0 120 L 272 120 L 272 240 L 0 280 Z" fill="#ff8c1a"/>
    
    <!-- Top flaps -->
    <path d="M 80 60 L 160 20 L 432 20 L 352 60 Z" fill="#ffcc66"/>
    <path d="M 160 20 L 240 80 L 352 60 L 432 20 Z" fill="#ffb84d"/>
  </g>
  
  <!-- Check mark circle -->
  <g transform="translate(320, 320)">
    <circle cx="64" cy="64" r="64" fill="#00cc44" stroke="#000000" stroke-width="8"/>
    <path d="M 32 64 L 52 84 L 96 40" stroke="#000000" stroke-width="12" stroke-linecap="round" stroke-linejoin="round" fill="none"/>
  </g>
</svg>